<svg width="129" height="42" viewBox="0 0 129 42" fill="none" xmlns="http://www.w3.org/2000/svg">
<path d="M26.5759 11.176L24.6159 22.348C24.5599 22.6467 24.5319 22.9547 24.5319 23.272C24.5319 23.9067 24.6999 24.4107 25.0359 24.784C25.3719 25.1387 25.9039 25.316 26.6319 25.316C27.5279 25.316 28.2372 25.0547 28.7599 24.532C29.2826 23.9907 29.6279 23.2627 29.7959 22.348L31.7559 11.176H37.9439L35.9839 22.348C35.6479 24.2893 34.9759 25.9227 33.9679 27.248C32.9786 28.5733 31.7559 29.5627 30.2999 30.216C28.8626 30.8693 27.2759 31.196 25.5399 31.196C23.3186 31.196 21.5452 30.6173 20.2199 29.46C18.8946 28.284 18.2319 26.6133 18.2319 24.448C18.2319 23.7573 18.2972 23.0573 18.4279 22.348L20.3879 11.176H26.5759ZM56.1369 31H49.9209L45.1049 21.032L43.3409 31H37.1249L40.6249 11.176H46.8409L51.6289 21.312L53.4209 11.176H59.6369L56.1369 31ZM60.1492 21.06C60.4852 19.1 61.1852 17.3547 62.2492 15.824C63.3132 14.2933 64.6572 13.108 66.2812 12.268C67.9052 11.4093 69.7159 10.98 71.7132 10.98C73.4306 10.98 74.9052 11.3067 76.1372 11.96C77.3879 12.5947 78.3399 13.5 78.9932 14.676C79.6466 15.852 79.9639 17.224 79.9452 18.792H73.3932C73.2066 18.1387 72.8706 17.6347 72.3852 17.28C71.8999 16.9067 71.3026 16.72 70.5932 16.72C69.5479 16.72 68.6519 17.112 67.9052 17.896C67.1586 18.68 66.6732 19.7347 66.4492 21.06C66.3746 21.4333 66.3372 21.8347 66.3372 22.264C66.3372 23.2347 66.5706 24 67.0372 24.56C67.5226 25.12 68.2039 25.4 69.0812 25.4C69.7906 25.4 70.4532 25.2227 71.0692 24.868C71.6852 24.4947 72.1986 23.9813 72.6092 23.328H79.1612C78.6012 24.896 77.7892 26.268 76.7252 27.444C75.6612 28.62 74.3919 29.5347 72.9172 30.188C71.4612 30.8227 69.8746 31.14 68.1572 31.14C66.4212 31.14 64.9372 30.8227 63.7052 30.188C62.4732 29.5347 61.5399 28.62 60.9052 27.444C60.2706 26.2493 59.9532 24.868 59.9532 23.3C59.9532 22.5347 60.0186 21.788 60.1492 21.06ZM89.7433 31.196C88.0633 31.196 86.5886 30.8507 85.3193 30.16C84.0499 29.4693 83.0699 28.4987 82.3793 27.248C81.6886 25.9787 81.3433 24.532 81.3433 22.908C81.3433 20.5373 81.8286 18.4467 82.7993 16.636C83.7886 14.8067 85.1606 13.388 86.9153 12.38C88.6886 11.3533 90.7233 10.84 93.0193 10.84C94.7366 10.84 96.2299 11.1853 97.4993 11.876C98.7873 12.548 99.7766 13.5093 100.467 14.76C101.158 15.992 101.503 17.42 101.503 19.044C101.503 21.396 101.009 23.496 100.019 25.344C99.0486 27.192 97.6673 28.6293 95.8753 29.656C94.1019 30.6827 92.0579 31.196 89.7433 31.196ZM90.6953 25.4C91.6659 25.4 92.5059 25.148 93.2153 24.644C93.9433 24.1213 94.4939 23.44 94.8673 22.6C95.2406 21.7413 95.4273 20.8173 95.4273 19.828C95.4273 18.8013 95.1473 18.008 94.5873 17.448C94.0459 16.8693 93.2619 16.58 92.2353 16.58C91.2646 16.58 90.4153 16.832 89.6873 17.336C88.9593 17.84 88.3993 18.5213 88.0073 19.38C87.6339 20.22 87.4473 21.1347 87.4473 22.124C87.4473 23.1507 87.7179 23.9533 88.2593 24.532C88.8193 25.1107 89.6313 25.4 90.6953 25.4ZM110.606 31.196C108.179 31.196 106.238 30.7107 104.782 29.74C103.344 28.7693 102.626 27.3507 102.626 25.484C102.626 25.2973 102.644 25.0173 102.682 24.644H109.29C109.234 25.2227 109.318 25.652 109.542 25.932C109.784 26.212 110.176 26.352 110.718 26.352C111.054 26.352 111.334 26.268 111.558 26.1C111.782 25.932 111.894 25.6893 111.894 25.372C111.894 24.924 111.67 24.5507 111.222 24.252C110.792 23.9533 110.092 23.5987 109.122 23.188C108.058 22.74 107.18 22.3107 106.49 21.9C105.818 21.4893 105.23 20.9293 104.726 20.22C104.222 19.5107 103.97 18.624 103.97 17.56C103.97 16.16 104.315 14.956 105.006 13.948C105.715 12.9213 106.695 12.1467 107.946 11.624C109.196 11.1013 110.624 10.84 112.23 10.84C113.667 10.84 114.946 11.064 116.066 11.512C117.204 11.96 118.091 12.6133 118.726 13.472C119.379 14.312 119.706 15.3107 119.706 16.468C119.706 16.6173 119.687 16.8787 119.65 17.252H112.958C112.995 17.028 113.014 16.8787 113.014 16.804C113.014 16.4493 112.911 16.1787 112.706 15.992C112.5 15.7867 112.22 15.684 111.866 15.684C111.548 15.684 111.287 15.7773 111.082 15.964C110.876 16.1507 110.774 16.3933 110.774 16.692C110.774 17.1027 110.988 17.4667 111.418 17.784C111.847 18.0827 112.528 18.456 113.462 18.904C114.526 19.408 115.403 19.884 116.094 20.332C116.803 20.78 117.41 21.3773 117.914 22.124C118.418 22.852 118.67 23.748 118.67 24.812C118.67 26.0253 118.343 27.1173 117.69 28.088C117.055 29.0587 116.131 29.824 114.918 30.384C113.704 30.9253 112.267 31.196 110.606 31.196ZM123.111 31.224C122.14 31.224 121.375 30.9907 120.815 30.524C120.273 30.0573 120.003 29.4507 120.003 28.704C120.003 28.0507 120.18 27.444 120.535 26.884C120.908 26.324 121.412 25.8853 122.047 25.568C122.7 25.232 123.419 25.064 124.203 25.064C125.155 25.064 125.901 25.3067 126.443 25.792C126.984 26.2587 127.255 26.8653 127.255 27.612C127.255 28.2653 127.077 28.872 126.723 29.432C126.368 29.9733 125.873 30.412 125.239 30.748C124.604 31.0653 123.895 31.224 123.111 31.224Z" fill="black"/>
<rect width="15.182" height="14.289" transform="matrix(-1 8.74228e-08 -0.500065 0.865988 22.3276 18.433)" fill="#D32531"/>
</svg>
